<?xml version="1.0" encoding="iso-8859-1"?>
<!-- Generator: Adobe Illustrator 19.0.0, SVG Export Plug-In . SVG Version: 6.00 Build 0)  -->
<svg version="1.1" id="Layer_1" xmlns="http://www.w3.org/2000/svg" xmlns:xlink="http://www.w3.org/1999/xlink" x="0px" y="0px"
	 viewBox="0 0 512 512" style="enable-background:new 0 0 512 512;" xml:space="preserve">
<polygon style="fill:#3C66B1;" points="83.248,34.754 129.523,34.754 129.523,106.238 51.265,106.238 51.265,34.754 "/>
<polygon style="fill:#2F558C;" points="114.489,34.754 114.489,73.301 51.265,73.301 51.265,88.334 129.523,88.334 129.523,34.754 
	"/>
<path style="fill:#DFDFE2;" d="M495.246,477.246H16.754c-5.026,0-9.139-4.112-9.139-9.139V96.065c0-5.026,4.112-9.139,9.139-9.139
	h478.493c5.026,0,9.139,4.112,9.139,9.139v372.042C504.384,473.134,500.272,477.246,495.246,477.246z"/>
<polygon style="fill:#FF5023;" points="341.569,401.887 504.384,401.887 504.384,215.745 376.423,215.745 132.673,215.745 
	7.615,215.745 7.615,401.887 35.81,401.887 "/>
<path style="fill:#77757E;" d="M254.477,151.335c77.547,0,140.413,62.864,140.413,140.413S332.025,432.16,254.477,432.16
	s-140.413-62.864-140.413-140.413c0-58.161,35.361-108.062,85.758-129.378C199.823,162.369,226.918,151.335,254.477,151.335z"/>
<circle style="fill:#ACAAB1;" cx="254.479" cy="291.745" r="109.562"/>
<path style="fill:#DFDFE2;" d="M327.371,344.563H182.871c-3.318,0-6.008-2.69-6.008-6.008v-92.327c0-3.318,2.69-6.008,6.008-6.008
	H327.37c3.318,0,6.008,2.69,6.008,6.008v92.327C333.378,341.873,330.688,344.563,327.371,344.563z"/>
<g>
	<circle style="fill:#FFFFFF;" cx="81.216" cy="151.335" r="25.598"/>
	<rect x="383.943" y="121.706" style="fill:#FFFFFF;" width="74.713" height="46.374"/>
	<polygon style="fill:#FFFFFF;" points="278.44,344.563 193.23,344.563 233.846,240.22 319.056,240.22 	"/>
</g>
<g>
	<path style="opacity:0.24;fill:#1D1D20;enable-background:new    ;" d="M495.389,86.926h-19.842v342.047
		c0,5.026-4.112,9.139-9.139,9.139H7.758v29.996c0,5.026,4.112,9.139,9.139,9.139h478.493c5.026,0,9.139-4.112,9.139-9.139V96.065
		C504.528,91.039,500.415,86.926,495.389,86.926z"/>
	<path style="opacity:0.24;fill:#1D1D20;enable-background:new    ;" d="M331.749,174.504
		c14.638,22.166,23.168,48.721,23.168,77.272c0,77.547-62.864,140.413-140.413,140.413c-28.551,0-55.106-8.529-77.272-23.168
		c25.121,38.039,68.248,63.141,117.244,63.141c77.547,0,140.413-62.864,140.413-140.413
		C394.889,242.751,369.787,199.625,331.749,174.504z"/>
</g>
<path d="M495.246,79.311H137.139V34.754c0-4.207-3.41-7.615-7.615-7.615H83.247c-4.206,0-7.616,3.409-7.616,7.615
	s3.41,7.615,7.616,7.615h38.66v36.941H58.881V34.754c0-4.207-3.41-7.615-7.615-7.615s-7.615,3.409-7.615,7.615v44.557H16.754
	C7.516,79.311,0,86.827,0,96.065v119.679v186.143v66.22c0,9.238,7.516,16.754,16.754,16.754h478.492
	c9.238,0,16.754-7.516,16.754-16.754v-66.22V215.744V96.065C512,86.827,504.484,79.311,495.246,79.311z M16.754,94.542h34.511
	h78.257h365.724c0.826,0,1.523,0.698,1.523,1.523v112.064H376.556c-26.705-38.866-71.463-64.409-122.079-64.409
	c-4.206,0-7.615,3.409-7.615,7.615s3.41,7.615,7.615,7.615c73.225,0,132.797,59.572,132.797,132.796
	c0,73.225-59.572,132.797-132.797,132.797s-132.797-59.572-132.797-132.797c0-53.493,31.837-101.523,81.109-122.365
	c3.874-1.638,5.685-6.107,4.047-9.98c-1.639-3.874-6.106-5.687-9.981-4.046c-26.767,11.322-48.9,29.856-64.575,52.773H15.231V96.065
	C15.231,95.238,15.929,94.542,16.754,94.542z M496.769,394.272H361.148c25.596-26.622,41.356-62.766,41.356-102.525
	c0-24.657-6.068-47.92-16.776-68.388h111.041V394.272z M495.246,469.63H16.754c-0.826,0-1.523-0.698-1.523-1.523v-58.605H35.81
	c4.206,0,7.615-3.409,7.615-7.615c0-4.207-3.41-7.616-7.615-7.616H15.231V223.359h107.905
	c-10.755,20.679-16.687,44.024-16.687,68.388c0,39.759,15.76,75.903,41.356,102.525H91.547c-4.206,0-7.616,3.409-7.616,7.615
	c0,4.207,3.41,7.616,7.616,7.616h73.341c24.888,18.982,55.942,30.272,89.588,30.272s64.699-11.291,89.588-30.272h152.704v58.605
	C496.769,468.934,496.071,469.63,495.246,469.63z"/>
<path d="M182.871,352.178h10.358h85.21h48.931c7.512,0,13.624-6.112,13.624-13.624v-92.327c0-7.512-6.112-13.624-13.624-13.624
	h-8.315h-85.21h-50.974c-7.512,0-13.624,6.112-13.624,13.624v92.327C169.249,346.067,175.359,352.178,182.871,352.178z
	 M325.763,336.947h-36.187l34.687-89.112h1.5V336.947z M307.919,247.836l-34.687,89.113h-68.865l34.687-89.112L307.919,247.836
	L307.919,247.836z M184.48,247.836h38.229l-34.687,89.113h-3.542V247.836z"/>
<path d="M81.216,184.553c18.317,0,33.218-14.902,33.218-33.218c0-18.317-14.902-33.219-33.218-33.219s-33.218,14.902-33.218,33.22
	C47.998,169.652,62.9,184.553,81.216,184.553z M81.216,133.348c9.918,0,17.987,8.069,17.987,17.988s-8.069,17.987-17.987,17.987
	s-17.987-8.068-17.987-17.987S71.298,133.348,81.216,133.348z"/>
<path d="M383.94,175.698h74.715c4.206,0,7.616-3.409,7.616-7.615v-46.375c0-4.207-3.41-7.615-7.616-7.615H383.94
	c-4.206,0-7.616,3.409-7.616,7.615v46.375C376.324,172.288,379.734,175.698,383.94,175.698z M391.555,129.322h59.484v31.144h-59.484
	V129.322z"/>
<path d="M137.302,291.748c0,64.61,52.564,117.174,117.174,117.174S371.65,356.357,371.65,291.748s-52.564-117.174-117.174-117.174
	S137.302,227.138,137.302,291.748z M254.477,189.804c56.212,0,101.943,45.732,101.943,101.943s-45.732,101.944-101.943,101.944
	s-101.944-45.732-101.944-101.943S198.265,189.804,254.477,189.804z"/>
<g>
</g>
<g>
</g>
<g>
</g>
<g>
</g>
<g>
</g>
<g>
</g>
<g>
</g>
<g>
</g>
<g>
</g>
<g>
</g>
<g>
</g>
<g>
</g>
<g>
</g>
<g>
</g>
<g>
</g>
</svg>
