<?xml version="1.0" encoding="iso-8859-1"?>
<!-- Generator: Adobe Illustrator 19.0.0, SVG Export Plug-In . SVG Version: 6.00 Build 0)  -->
<svg version="1.1" id="Layer_1" xmlns="http://www.w3.org/2000/svg" xmlns:xlink="http://www.w3.org/1999/xlink" x="0px" y="0px"
	 viewBox="0 0 297 297" style="enable-background:new 0 0 297 297;" xml:space="preserve">
<g>
	<g>
		<g>
			<g>
				<circle style="fill:#AE9676;" cx="148.5" cy="148.5" r="148.5"/>
			</g>
		</g>
	</g>
	<path style="fill:#8E7559;" d="M294.562,121.592l-49.451-49.451L29.913,209.059l83.873,83.851
		c11.137,2.668,22.759,4.09,34.714,4.09c82.014,0,148.5-66.486,148.5-148.5C297,139.311,296.159,130.319,294.562,121.592z"/>
	<g>
		<path style="fill:#32373B;" d="M58.083,201.5h180.833c4.741,0,8.583-3.843,8.583-8.583V78.084c0-4.741-3.843-8.584-8.583-8.584
			H58.083c-4.741,0-8.583,3.843-8.583,8.584v114.833C49.5,197.657,53.343,201.5,58.083,201.5z"/>
	</g>
	<g>
		<rect x="60.5" y="82.7" style="fill:#D0D5D9;" width="176" height="102.3"/>
	</g>
	<g>
		<path style="fill:#262626;" d="M42.665,214.5h211.67c9.756,0,17.665-7.909,17.665-17.665V193.5H25v3.335
			C25,206.591,32.909,214.5,42.665,214.5z"/>
	</g>
</g>
<g>
</g>
<g>
</g>
<g>
</g>
<g>
</g>
<g>
</g>
<g>
</g>
<g>
</g>
<g>
</g>
<g>
</g>
<g>
</g>
<g>
</g>
<g>
</g>
<g>
</g>
<g>
</g>
<g>
</g>
</svg>
