<?xml version="1.0" encoding="iso-8859-1"?>
<!-- Generator: Adobe Illustrator 18.0.0, SVG Export Plug-In . SVG Version: 6.00 Build 0)  -->
<!DOCTYPE svg PUBLIC "-//W3C//DTD SVG 1.1//EN" "http://www.w3.org/Graphics/SVG/1.1/DTD/svg11.dtd">
<svg version="1.1" id="Capa_1" xmlns="http://www.w3.org/2000/svg" xmlns:xlink="http://www.w3.org/1999/xlink" x="0px" y="0px"
	 viewBox="0 0 254.505 254.505" style="enable-background:new 0 0 254.505 254.505;" xml:space="preserve">
<g>
	<path style="fill:#C7B773;" d="M81.921,34.147c-12.41,0.398-21.874,12.831-24.222,16.209c0.291,2.246,1.561,5.146,3.406,7.688
		c2.31,3.183,4.476,4.371,5.301,4.371c0.028,0,0.058,0,0.081-0.005c9.277-1.359,17.042-2.051,23.089-2.051
		c4.578,0,7.462,0.393,9.273,0.852c3.858-3.119,7.492-7.533,8.117-10.827C98.81,39.337,90.359,33.862,81.921,34.147z"/>
	<path style="fill:#C7B773;" d="M82.353,6.674c-11.355,0-21.214,14.072-23.955,32.472c5.307-5.372,13.392-11.344,23.31-11.662
		c8.556-0.276,16.808,3.7,24.62,11.802C103.615,20.814,93.735,6.674,82.353,6.674z"/>
	<path style="fill:#C7B773;" d="M101.379,67.655l-0.628,0.452c0.249,7.464,1.489,26.716,7.552,41.769
		c-0.158-4.404-0.294-8.867-0.416-13.27c-3.083-9.285-3.766-25.186-3.804-26.024l-0.022-0.562l3.228-1.483
		c-0.031-2.154-0.063-4.177-0.086-6.046C105.195,64.64,103.073,66.441,101.379,67.655z"/>
	<path style="fill:#C7B773;" d="M68.079,130.535c-0.888-0.251-1.797-0.436-2.712-0.608c1.32,0.455,2.731,0.824,4.218,1.121
		C69.115,130.866,68.623,130.69,68.079,130.535z"/>
	<path style="fill:#C7B773;" d="M49.474,59.867c1.857,1.178,4.6,2.733,7.594,3.809c-0.465-0.537-0.917-1.108-1.357-1.719
		c-2.271-3.131-3.835-6.604-4.446-9.743C50.633,54.753,50.034,57.312,49.474,59.867z"/>
	<path style="fill:#C7B773;" d="M81.644,237.809c-1.829,0.1-3.6,0.168-5.358,0.086C78.495,238.128,80.342,238.001,81.644,237.809z"
		/>
	<path style="fill:#C7B773;" d="M61.54,71.994l-0.015,0.788c-0.001,0.076-0.142,7.72-1.532,16.895
		c-1.744,11.527-4.576,20.245-8.423,25.949c0.349,1.266,0.823,2.576,1.462,3.875c11.792-15.704,12.799-41.434,12.763-50.465
		c-1.538-0.137-3.135-0.744-4.715-1.774c-4.641-0.648-9.189-2.969-12.166-4.785c-0.31,1.48-0.608,2.957-0.894,4.421
		c2.95,1.488,9.868,4.835,12.732,5.04L61.54,71.994z"/>
	<path style="fill:#C7B773;" d="M103.05,11.845c-0.144-0.138-0.293-0.276-0.44-0.415c0.155,0.204,0.31,0.409,0.462,0.618
		C103.067,11.981,103.054,11.912,103.05,11.845z"/>
	<path style="fill:#C7B773;" d="M44.847,180.516l0.047,0.129c1.446,5.025,3.779,7.881,6.929,8.484
		c9.923,1.898,25.276-17.735,25.429-17.935l0.749-0.96l0.627,1.042c0.108,0.183,8.044,13.231,16.503,17.871
		c0.284,0.142,0.566,0.285,0.862,0.408c1.009,0.42,2.102,0.815,3.206,1.08c0.476,0.079,0.951,0.134,1.422,0.134
		c1.328,0,2.624-0.329,3.871-1.071l0.147-0.069c0.065-0.024,4.528-1.894,7.396-11.854c0.076-2.21,0.116-4.33,0.129-6.344
		c-2.409,7.493-5.734,9.173-6.736,9.517c-1.363,0.788-2.819,1.179-4.354,1.179c-0.875,0-1.774-0.126-2.697-0.384
		c-8.805-2.441-17.53-16.229-20.506-21.343c-3.634,5.789-14.47,21.728-23.191,20.592c-3.58-0.451-6.24-3.61-7.899-9.376
		c-0.057-0.238-3.194-14.952-5.019-48.93c-0.485,4.031-0.796,5.968-0.828,6.163l-0.11,0.658l-0.35,0.561
		c-0.656,1.057-1.236,2.176-1.752,3.348C39.474,168.681,44.792,180.398,44.847,180.516z"/>
	<path style="fill:#C7B773;" d="M45.436,135.019c-0.142,0-0.273-0.022-0.404-0.063c1.803,24.931,4.136,35.898,4.169,36.044
		c1.339,4.641,3.292,7.196,5.793,7.512c7.129,0.874,18.179-15.011,21.841-21.216l1.13-1.918l1.051,1.96
		c0.101,0.195,10.437,19.336,20.028,21.997c1.941,0.534,3.646,0.335,5.233-0.613l0.153-0.089l0.17-0.045
		c0.047-0.018,5.701-2.123,7.295-19.377c-0.146-2.932-0.309-4.872-0.355-5.431c-0.542-2.711-1.022-6.656-1.444-11.428
		c-0.838-0.263-1.452-1.036-1.452-1.96c0-0.811,0.468-1.503,1.143-1.841c-0.039-0.521-0.082-1.054-0.118-1.589
		c-5.587,2.661-15.317,3.434-24.722,3.434c-12.434,0-24.291-1.345-25.248-1.459c-7.124-0.563-12.396-6.264-15.458-16.583
		c0.187,3.497,0.386,6.769,0.599,9.856c0.18-0.079,0.379-0.128,0.595-0.128c0.81,0,1.466,0.661,1.466,1.47
		C46.901,134.361,46.245,135.019,45.436,135.019z M105.553,140.391c1.706,0,3.091,1.382,3.091,3.091
		c0,1.707-1.385,3.091-3.091,3.091c-1.707,0-3.09-1.383-3.09-3.091C102.463,141.774,103.846,140.391,105.553,140.391z
		 M98.234,142.052c1.14,0,2.064,0.924,2.064,2.063c0,1.143-0.924,2.067-2.064,2.067c-1.141,0-2.067-0.924-2.067-2.067
		C96.167,142.976,97.093,142.052,98.234,142.052z M92.589,143.48c0.812,0,1.472,0.661,1.472,1.47c0,0.813-0.66,1.471-1.472,1.471
		c-0.811,0-1.469-0.658-1.469-1.471C91.12,144.141,91.778,143.48,92.589,143.48z M86.95,142.883c1.139,0,2.068,0.927,2.068,2.067
		c0,1.14-0.929,2.065-2.068,2.065c-1.139,0-2.065-0.925-2.065-2.065C84.885,143.811,85.811,142.883,86.95,142.883z M79.608,141.86
		c1.707,0,3.092,1.381,3.092,3.089c0,1.71-1.385,3.094-3.092,3.094c-1.705,0-3.089-1.384-3.089-3.094
		C76.519,143.241,77.903,141.86,79.608,141.86z M72.008,143.297c1.139,0,2.064,0.93,2.064,2.069c0,1.139-0.925,2.065-2.064,2.065
		c-1.139,0-2.067-0.926-2.067-2.065C69.941,144.227,70.869,143.297,72.008,143.297z M66.368,143.894
		c0.812,0,1.472,0.657,1.472,1.472c0,0.811-0.66,1.467-1.472,1.467c-0.811,0-1.471-0.656-1.471-1.467
		C64.897,144.551,65.557,143.894,66.368,143.894z M60.724,142.462c1.142,0,2.068,0.928,2.068,2.068c0,1.142-0.926,2.067-2.068,2.067
		c-1.138,0-2.063-0.926-2.063-2.067C58.661,143.39,59.586,142.462,60.724,142.462z M53.406,139.795c1.706,0,3.09,1.382,3.09,3.087
		c0,1.71-1.385,3.095-3.09,3.095c-1.709,0-3.091-1.385-3.091-3.095C50.315,141.177,51.697,139.795,53.406,139.795z M48.329,135.662
		c1.142,0,2.069,0.927,2.069,2.066c0,1.142-0.927,2.067-2.069,2.067c-1.142,0-2.065-0.925-2.065-2.067
		C46.263,136.589,47.187,135.662,48.329,135.662z"/>
	<path style="fill:#C7B773;" d="M105.314,231.045c-4.775,6.645-11.164,11.37-19.709,12.706c-0.902,0.27-3.439,0.918-6.981,0.92
		c-4.036,0-9.373-0.842-15.094-4.036c-7.997-4.463-14.685-12.268-20.014-23.317c3.04,9.184,6.802,18.285,13.445,23.34
		c11.1,8.45,20.979,7.042,20.979,7.042s12.083,0.963,21.851-9.196C101.913,236.294,103.733,233.784,105.314,231.045z"/>
	<path style="fill:#C7B773;" d="M59.861,137.28c0.144,0.016,11.671,1.342,23.877,1.441c12.611,0.106,21.397-1.114,25.809-3.531
		c-0.132-1.937-0.256-3.957-0.374-6.037c-2.791,2.304-7.32,3.971-13.545,4.965c-6.204,0.992-11.909,0.971-12.623,0.964
		c-1.475,0.088-2.905,0.133-4.295,0.133c-11.218,0-19.626-2.974-25.022-8.868c-7.615-8.318-6.409-19.396-6.227-20.761
		c0.161-12.473-1.217-17.98-2.418-20.41c-0.003,0.033-0.009,0.067-0.013,0.104c-0.518,7.829-1.031,14.458-1.513,20.007
		c0.07,2.102,0.144,4.144,0.224,6.142C45.244,123.188,49.29,136.445,59.861,137.28z"/>
	<path style="fill:#E3DB9A;" d="M81.644,237.809c1.319-0.194,2.083-0.451,2.105-0.459l0.303-0.104l0.313-0.05
		c9.214-1.355,20.938-9.274,25.723-38.671c-0.833-0.262-1.444-1.033-1.444-1.961c0-1.13,0.912-2.048,2.044-2.062
		c0.003-0.043,0.01-0.082,0.016-0.126c0.485-3.684,0.823-7.361,1.05-10.906c-2.732,5.906-5.865,7.44-6.471,7.69
		c-1.514,0.891-3.072,1.282-4.651,1.282c-9.804,0-20.146-15.135-22.801-19.298c-3.116,3.821-15.137,17.773-24.641,17.775
		c-0.572,0-1.128-0.051-1.677-0.155c-3.805-0.731-6.567-3.961-8.203-9.598c-0.47-1.033-5.11-11.986-6.144-43.428
		c-5.753,20.082,3.543,49.752,3.651,50.086l0.08,0.306c0.544,2.475,1.13,4.863,1.748,7.173c0.226-0.083,0.469-0.137,0.724-0.137
		c1.14,0,2.066,0.926,2.066,2.064c0,1.006-0.717,1.841-1.663,2.027c5.392,17.915,13.247,30.111,23.005,35.558
		c3.504,1.955,6.782,2.791,9.508,3.078C78.044,237.978,79.815,237.909,81.644,237.809z M104.511,198.275
		c1.707,0,3.09,1.383,3.09,3.092c0,1.706-1.383,3.092-3.09,3.092c-1.706,0-3.09-1.386-3.09-3.092
		C101.42,199.658,102.805,198.275,104.511,198.275z M96.868,197.234c1.142,0,2.069,0.927,2.069,2.067
		c0,1.142-0.927,2.066-2.069,2.066c-1.139,0-2.064-0.924-2.064-2.066C94.804,198.161,95.729,197.234,96.868,197.234z M90.489,193.63
		c0.808,0,1.466,0.659,1.466,1.468c0,0.813-0.658,1.468-1.466,1.468c-0.817,0-1.471-0.655-1.471-1.468
		C89.018,194.289,89.672,193.63,90.489,193.63z M50.313,203.664c-1.706,0-3.089-1.386-3.089-3.096c0-1.702,1.383-3.091,3.089-3.091
		c1.708,0,3.09,1.389,3.09,3.091C53.403,202.278,52.022,203.664,50.313,203.664z M57.956,200.574c-1.141,0-2.067-0.929-2.067-2.068
		c0-1.141,0.926-2.065,2.067-2.065c1.14,0,2.067,0.924,2.067,2.065C60.022,199.645,59.096,200.574,57.956,200.574z M64.34,195.771
		c-0.813,0-1.469-0.654-1.469-1.467c0-0.814,0.656-1.468,1.469-1.468c0.814,0,1.47,0.654,1.47,1.468
		C65.81,195.117,65.154,195.771,64.34,195.771z M84.885,189.601c1.139,0,2.065,0.923,2.065,2.064c0,1.14-0.926,2.067-2.065,2.067
		c-1.14,0-2.065-0.927-2.065-2.067C82.819,190.524,83.745,189.601,84.885,189.601z M69.94,192.935c-1.141,0-2.067-0.924-2.067-2.065
		c0-1.14,0.926-2.064,2.067-2.064c1.142,0,2.068,0.924,2.068,2.064C72.008,192.011,71.082,192.935,69.94,192.935z M74.324,187.242
		c0-0.138,0.023-0.268,0.038-0.399c-0.015-0.132-0.038-0.261-0.038-0.398c0-1.706,1.383-3.089,3.088-3.089
		c1.708,0,3.09,1.383,3.09,3.089c0,0.137-0.024,0.266-0.037,0.398c0.013,0.131,0.037,0.261,0.037,0.399
		c0,1.705-1.382,3.09-3.09,3.09C75.708,190.332,74.324,188.946,74.324,187.242z"/>
	<path style="fill:#E3DB9A;" d="M95.132,189.147c1.353,0.742,2.718,1.264,4.067,1.488c-1.104-0.265-2.196-0.66-3.206-1.08
		C95.698,189.431,95.416,189.288,95.132,189.147z"/>
	<path style="fill:#E3DB9A;" d="M69.585,131.048c0.979,0.195,1.983,0.367,3.035,0.493c0.135-4.24,3.6-7.707,8.067-8.25v-2.187
		H69.702c-0.918,0-1.665-0.748-1.665-1.668c0-0.922,0.747-1.666,1.665-1.666h10.985v-6.958H69.702c-0.918,0-1.665-0.747-1.665-1.668
		c0-0.918,0.747-1.663,1.665-1.663h10.985v-8.692h-9.078c-0.919,0-1.668-0.748-1.668-1.668s0.749-1.666,1.668-1.666h9.078v-7.339
		c-3.774,0.171-6.667,0.57-6.72,0.576c-0.908,0.131-1.753-0.507-1.884-1.417c-0.124-0.912,0.508-1.757,1.418-1.884
		c0.238-0.031,3.252-0.447,7.186-0.621V77.26c-3.864,0.193-6.568,0.734-6.619,0.744c-0.909,0.187-1.783-0.402-1.966-1.301
		c-0.182-0.901,0.396-1.781,1.296-1.963c0.219-0.048,3.143-0.632,7.289-0.822v-3.714c0-0.925,0.745-1.67,1.665-1.67
		c0.917,0,1.666,0.745,1.666,1.67v3.652c2.655,0.033,5.581,0.271,8.513,0.884c0.899,0.188,1.477,1.07,1.29,1.972
		c-0.162,0.787-0.858,1.324-1.63,1.324c-0.11,0-0.226-0.012-0.342-0.035c-2.674-0.557-5.372-0.774-7.83-0.806v7.499
		c2.825,0.003,5.833,0.181,8.499,0.713c0.901,0.179,1.484,1.058,1.303,1.961c-0.159,0.789-0.852,1.338-1.63,1.338
		c-0.107,0-0.219-0.009-0.328-0.033c-2.42-0.481-5.205-0.642-7.844-0.642v7.423h8.172c0.92,0,1.664,0.746,1.664,1.666
		s-0.744,1.668-1.664,1.668h-8.172v8.692h10.838c0.919,0,1.668,0.745,1.668,1.663c0,0.922-0.749,1.668-1.668,1.668H84.019v6.958
		h10.838c0.919,0,1.668,0.744,1.668,1.666c0,0.92-0.749,1.668-1.668,1.668H84.019v2.338c3.956,0.859,6.938,4.049,7.151,7.913
		c7.272-0.741,15.928-2.673,17.678-7.092c0.021-0.039,0.041-0.072,0.06-0.113c-0.124-2.524-0.242-5.121-0.351-7.761
		c-4.299-8.082-7.341-18.995-9.057-32.47c-0.823-6.502-1.13-12.142-1.246-15.548l-0.571-0.557c-0.58-0.194-2.789-0.788-8.108-0.788
		c-5.541,0-12.705,0.629-21.279,1.859c0.025,3.733-0.115,10.322-1.109,17.862c-1.381,10.457-4.737,24.87-12.822,35.08
		c0.526,0.789,1.122,1.558,1.8,2.295c2.366,2.576,5.444,4.51,9.202,5.806c0.915,0.172,1.824,0.357,2.712,0.608
		C68.623,130.69,69.115,130.866,69.585,131.048z"/>
	<path style="fill:#E3DB9A;" d="M45.652,80.741c3.644,2.55,5.327,10.727,5.135,24.997l-0.018,0.229
		c-0.009,0.054-0.452,3.251,0.281,7.358c7.486-12.632,8.632-35.449,8.788-39.833c-3.295-0.61-9.17-3.403-12.145-4.893
		C46.898,72.805,46.212,76.897,45.652,80.741z"/>
	<path style="fill:#E3DB9A;" d="M107.318,70.357l-1.542,0.71c0.113,2.178,0.596,10.351,1.908,17.729
		C107.526,82.183,107.41,75.894,107.318,70.357z"/>
	<path style="fill:#C7B773;" d="M84.019,125.151v0.557c0,0.92-0.749,1.668-1.666,1.668c-0.921,0-1.665-0.748-1.665-1.668v-0.736
		c-3.604,0.524-6.37,3.338-6.409,6.737c2.646,0.222,5.506,0.234,8.579,0.043l0.065-0.007l0.062,0.003
		c1.619,0.023,3.937-0.037,6.527-0.243C89.375,128.487,87.096,125.963,84.019,125.151z"/>
	<path style="fill:#05293D;" d="M118.157,152.983l-0.052-0.357c-3.778-18.347-4.368-102.36-4.373-103.206l-0.007-1.058l-0.012-0.014
		c-0.192-14.64-4.24-27.521-10.642-36.3c-0.152-0.209-0.308-0.414-0.462-0.618C97.181,4.278,90.145,0.01,82.353,0.01
		c0,0-10.912-0.647-19.496,8.544c-6.499,6.639-12.156,19.37-17.143,38.516c-4.91,18.856-7.288,37.284-7.311,37.47l-0.018,0.202
		c-1.757,26.655-3.518,39.547-3.938,42.409c-6.584,11.153-6.546,26.924-4.879,39.868c-0.014,2.428,0.029,15.243,2.445,30.455
		c3.593,22.6,10.452,38.765,20.392,48.053c6.39,5.965,13.967,8.979,22.569,8.979c0.966,0,1.95-0.039,2.948-0.116
		c2.324,0.152,15.349,0.394,26.533-11.122c14.455-14.888,19.25-42.17,14.265-81.083C118.527,157.041,118.22,153.635,118.157,152.983
		z M77.939,247.7c0,0-9.879,1.409-20.979-7.042c-6.643-5.055-10.405-14.156-13.445-23.34c5.33,11.048,12.018,18.854,20.014,23.317
		c5.721,3.194,11.059,4.036,15.094,4.036c3.541-0.002,6.079-0.65,6.981-0.92c8.545-1.336,14.935-6.062,19.709-12.706
		c-1.581,2.739-3.401,5.249-5.524,7.459C90.022,248.664,77.939,247.7,77.939,247.7z M45.436,132.082
		c-0.216,0-0.415,0.049-0.595,0.128c-0.212-3.087-0.412-6.359-0.599-9.856c3.061,10.319,8.333,16.021,15.458,16.583
		c0.957,0.114,12.814,1.459,25.248,1.459c9.404,0,19.134-0.773,24.722-3.434c0.036,0.536,0.079,1.068,0.118,1.589
		c-0.675,0.338-1.143,1.03-1.143,1.841c0,0.924,0.614,1.698,1.452,1.96c0.421,4.772,0.902,8.716,1.444,11.428
		c0.047,0.56,0.21,2.5,0.355,5.431c-1.595,17.254-7.248,19.359-7.295,19.377l-0.17,0.045l-0.153,0.089
		c-1.587,0.948-3.292,1.148-5.233,0.613c-9.59-2.661-19.927-21.802-20.028-21.997l-1.051-1.96l-1.13,1.918
		c-3.662,6.205-14.712,22.09-21.841,21.216c-2.501-0.316-4.454-2.871-5.793-7.512c-0.033-0.146-2.367-11.113-4.169-36.044
		c0.131,0.04,0.262,0.063,0.404,0.063c0.81,0,1.466-0.658,1.466-1.468C46.901,132.742,46.245,132.082,45.436,132.082z
		 M51.05,113.326c-0.733-4.107-0.29-7.304-0.281-7.358l0.018-0.229c0.192-14.271-1.491-22.447-5.135-24.997
		c0.56-3.844,1.246-7.936,2.042-12.141c2.974,1.489,8.849,4.283,12.145,4.893C59.683,77.877,58.537,100.693,51.05,113.326z
		 M45.028,85.28c0.003-0.037,0.009-0.07,0.013-0.104c1.201,2.43,2.579,7.937,2.418,20.41c-0.182,1.364-1.388,12.442,6.227,20.761
		c5.396,5.894,13.805,8.868,25.022,8.868c1.391,0,2.82-0.045,4.295-0.133c0.714,0.007,6.418,0.028,12.623-0.964
		c6.226-0.995,10.755-2.661,13.545-4.965c0.119,2.08,0.242,4.101,0.374,6.037c-4.412,2.417-13.197,3.637-25.809,3.531
		c-12.206-0.099-23.732-1.425-23.877-1.441c-10.571-0.835-14.617-14.092-16.122-25.852c-0.08-1.998-0.154-4.039-0.224-6.142
		C43.997,99.738,44.509,93.109,45.028,85.28z M105.776,71.068l1.542-0.71c0.091,5.537,0.208,11.826,0.366,18.439
		C106.372,81.418,105.889,73.245,105.776,71.068z M56.165,124.122c-0.678-0.737-1.274-1.506-1.8-2.295
		c8.085-10.21,11.441-24.623,12.822-35.08c0.994-7.54,1.134-14.129,1.109-17.862c8.574-1.229,15.738-1.859,21.279-1.859
		c5.319,0,7.528,0.593,8.108,0.788l0.571,0.557c0.115,3.406,0.422,9.046,1.246,15.548c1.716,13.475,4.758,24.388,9.057,32.47
		c0.108,2.641,0.226,5.237,0.351,7.761c-0.019,0.041-0.039,0.074-0.06,0.113c-1.75,4.419-10.406,6.352-17.678,7.092
		c-0.213-3.864-3.195-7.054-7.151-7.913v-2.338h10.838c0.919,0,1.668-0.748,1.668-1.668c0-0.922-0.749-1.666-1.668-1.666H84.019
		v-6.958h10.838c0.919,0,1.668-0.747,1.668-1.668c0-0.918-0.749-1.663-1.668-1.663H84.019v-8.692h8.172
		c0.92,0,1.664-0.748,1.664-1.668s-0.744-1.666-1.664-1.666h-8.172v-7.423c2.64,0,5.424,0.161,7.844,0.642
		c0.108,0.024,0.22,0.033,0.328,0.033c0.779,0,1.472-0.549,1.63-1.338c0.182-0.904-0.401-1.782-1.303-1.961
		c-2.666-0.532-5.674-0.71-8.499-0.713v-7.499c2.457,0.032,5.156,0.249,7.83,0.806c0.117,0.022,0.232,0.035,0.342,0.035
		c0.772,0,1.469-0.537,1.63-1.324c0.188-0.902-0.39-1.784-1.29-1.972c-2.932-0.613-5.857-0.851-8.513-0.884v-3.652
		c0-0.925-0.749-1.67-1.666-1.67c-0.921,0-1.665,0.745-1.665,1.67v3.714c-4.146,0.19-7.07,0.774-7.289,0.822
		c-0.899,0.182-1.478,1.063-1.296,1.963c0.183,0.898,1.057,1.488,1.966,1.301c0.05-0.01,2.755-0.551,6.619-0.744v7.509
		c-3.934,0.174-6.948,0.59-7.186,0.621c-0.91,0.127-1.542,0.972-1.418,1.884c0.131,0.91,0.976,1.548,1.884,1.417
		c0.054-0.005,2.946-0.405,6.72-0.576v7.339h-9.078c-0.919,0-1.668,0.746-1.668,1.666s0.749,1.668,1.668,1.668h9.078v8.692H69.702
		c-0.918,0-1.665,0.745-1.665,1.663c0,0.922,0.747,1.668,1.665,1.668h10.985v6.958H69.702c-0.918,0-1.665,0.744-1.665,1.666
		c0,0.92,0.747,1.668,1.665,1.668h10.985v2.187c-4.467,0.543-7.933,4.01-8.067,8.25c-1.051-0.126-2.056-0.297-3.035-0.493
		c-1.487-0.296-2.898-0.666-4.218-1.121C61.609,128.631,58.531,126.697,56.165,124.122z M82.984,131.749l-0.062-0.003l-0.065,0.007
		c-3.073,0.191-5.934,0.179-8.579-0.043c0.039-3.4,2.804-6.213,6.409-6.737v0.736c0,0.92,0.745,1.668,1.665,1.668
		c0.917,0,1.666-0.748,1.666-1.668v-0.557c3.078,0.812,5.356,3.336,5.493,6.354C86.921,131.712,84.603,131.772,82.984,131.749z
		 M104.061,70.02l0.022,0.562c0.038,0.838,0.721,16.739,3.804,26.024c0.122,4.403,0.258,8.866,0.416,13.27
		c-6.063-15.052-7.303-34.305-7.552-41.769l0.628-0.452c1.694-1.214,3.816-3.015,5.824-5.164c0.023,1.869,0.055,3.893,0.086,6.046
		L104.061,70.02z M98.848,61.212c-1.811-0.459-4.695-0.852-9.273-0.852c-6.047,0-13.812,0.691-23.089,2.051
		c-0.023,0.005-0.053,0.005-0.081,0.005c-0.824,0-2.99-1.189-5.301-4.371c-1.844-2.542-3.115-5.442-3.406-7.688
		c2.348-3.378,11.812-15.811,24.222-16.209c8.438-0.284,16.889,5.19,25.044,16.238C106.34,53.679,102.706,58.093,98.848,61.212z
		 M81.708,27.484c-9.918,0.317-18.003,6.29-23.31,11.662c2.741-18.4,12.6-32.472,23.955-32.472c11.383,0,21.262,14.14,23.975,32.612
		C98.516,31.184,90.264,27.208,81.708,27.484z M57.067,63.675c-2.994-1.075-5.736-2.63-7.594-3.809
		c0.561-2.555,1.159-5.114,1.79-7.653c0.61,3.14,2.175,6.612,4.446,9.743C56.15,62.567,56.603,63.139,57.067,63.675z M48.912,62.476
		c2.977,1.816,7.525,4.137,12.166,4.785c1.581,1.03,3.178,1.637,4.715,1.774c0.037,9.032-0.97,34.761-12.763,50.465
		c-0.639-1.3-1.112-2.609-1.462-3.875c3.847-5.704,6.68-14.422,8.423-25.949c1.391-9.175,1.531-16.819,1.532-16.895l0.015-0.788
		l-0.789-0.056c-2.864-0.206-9.782-3.553-12.732-5.04C48.303,65.433,48.602,63.956,48.912,62.476z M40.822,129.504l0.11-0.658
		c0.032-0.194,0.343-2.132,0.828-6.163c1.825,33.979,4.962,48.692,5.019,48.93c1.66,5.766,4.32,8.926,7.899,9.376
		c8.721,1.135,19.558-14.803,23.191-20.592c2.977,5.114,11.702,18.902,20.506,21.343c0.922,0.258,1.822,0.384,2.697,0.384
		c1.536,0,2.991-0.392,4.354-1.179c1.002-0.343,4.327-2.023,6.736-9.517c-0.013,2.014-0.053,4.134-0.129,6.344
		c-2.869,9.96-7.331,11.83-7.396,11.854l-0.147,0.069c-1.247,0.743-2.543,1.071-3.871,1.071c-0.471,0-0.946-0.054-1.422-0.134
		c-1.35-0.224-2.714-0.746-4.067-1.488c-8.459-4.639-16.395-17.688-16.503-17.871l-0.627-1.042l-0.749,0.96
		c-0.153,0.2-15.506,19.832-25.429,17.935c-3.15-0.603-5.483-3.459-6.929-8.484l-0.047-0.129
		c-0.056-0.119-5.374-11.835-6.127-47.103c0.516-1.172,1.096-2.291,1.752-3.348L40.822,129.504z M66.777,234.818
		c-9.758-5.446-17.613-17.643-23.005-35.558c0.947-0.186,1.663-1.021,1.663-2.027c0-1.138-0.926-2.064-2.066-2.064
		c-0.255,0-0.498,0.054-0.724,0.137c-0.618-2.31-1.203-4.698-1.748-7.173l-0.08-0.306c-0.108-0.334-9.404-30.004-3.651-50.086
		c1.033,31.442,5.673,42.395,6.144,43.428c1.636,5.637,4.398,8.867,8.203,9.598c0.549,0.104,1.105,0.155,1.677,0.155
		c9.503-0.002,21.524-13.954,24.641-17.775c2.655,4.163,12.997,19.298,22.801,19.298c1.579,0,3.138-0.392,4.651-1.282
		c0.606-0.25,3.739-1.785,6.471-7.69c-0.228,3.545-0.565,7.223-1.05,10.906c-0.006,0.044-0.013,0.083-0.016,0.126
		c-1.132,0.014-2.044,0.932-2.044,2.062c0,0.928,0.611,1.699,1.444,1.961c-4.785,29.396-16.509,37.316-25.723,38.671l-0.313,0.05
		l-0.303,0.104c-0.023,0.008-0.787,0.265-2.105,0.459c-1.302,0.192-3.149,0.319-5.358,0.086
		C73.56,237.609,70.282,236.774,66.777,234.818z"/>
	<path style="fill:#05293D;" d="M50.313,197.477c-1.706,0-3.089,1.389-3.089,3.091c0,1.71,1.383,3.096,3.089,3.096
		c1.708,0,3.09-1.386,3.09-3.096C53.403,198.866,52.022,197.477,50.313,197.477z"/>
	<circle style="fill:#05293D;" cx="57.956" cy="198.507" r="2.067"/>
	<path style="fill:#05293D;" d="M64.34,192.837c-0.813,0-1.469,0.654-1.469,1.468c0,0.813,0.656,1.467,1.469,1.467
		c0.814,0,1.47-0.654,1.47-1.467C65.81,193.491,65.154,192.837,64.34,192.837z"/>
	<circle style="fill:#05293D;" cx="69.94" cy="190.871" r="2.064"/>
	<path style="fill:#05293D;" d="M80.502,187.242c0-0.138-0.024-0.268-0.037-0.399c0.013-0.132,0.037-0.261,0.037-0.398
		c0-1.706-1.382-3.089-3.09-3.089c-1.705,0-3.088,1.383-3.088,3.089c0,0.137,0.023,0.266,0.038,0.398
		c-0.015,0.131-0.038,0.261-0.038,0.399c0,1.705,1.383,3.09,3.088,3.09C79.12,190.332,80.502,188.946,80.502,187.242z"/>
	<circle style="fill:#05293D;" cx="104.511" cy="201.367" r="3.092"/>
	<path style="fill:#05293D;" d="M96.868,201.367c1.142,0,2.069-0.924,2.069-2.066c0-1.14-0.927-2.067-2.069-2.067
		c-1.139,0-2.064,0.927-2.064,2.067C94.804,200.443,95.729,201.367,96.868,201.367z"/>
	<path style="fill:#05293D;" d="M90.489,196.565c0.808,0,1.466-0.655,1.466-1.468c0-0.808-0.658-1.468-1.466-1.468
		c-0.817,0-1.471,0.659-1.471,1.468C89.018,195.91,89.672,196.565,90.489,196.565z"/>
	<circle style="fill:#05293D;" cx="84.885" cy="191.666" r="2.066"/>
	<path style="fill:#05293D;" d="M79.608,148.043c1.707,0,3.092-1.384,3.092-3.094c0-1.708-1.385-3.089-3.092-3.089
		c-1.705,0-3.089,1.381-3.089,3.089C76.519,146.659,77.903,148.043,79.608,148.043z"/>
	<circle style="fill:#05293D;" cx="105.553" cy="143.482" r="3.091"/>
	<circle style="fill:#05293D;" cx="98.234" cy="144.117" r="2.065"/>
	<path style="fill:#05293D;" d="M92.589,146.421c0.812,0,1.472-0.658,1.472-1.471c0-0.809-0.66-1.47-1.472-1.47
		c-0.811,0-1.469,0.661-1.469,1.47C91.12,145.763,91.778,146.421,92.589,146.421z"/>
	<path style="fill:#05293D;" d="M86.95,147.016c1.139,0,2.068-0.925,2.068-2.065c0-1.14-0.929-2.067-2.068-2.067
		c-1.139,0-2.065,0.927-2.065,2.067C84.885,146.091,85.811,147.016,86.95,147.016z"/>
	<path style="fill:#05293D;" d="M53.406,145.976c1.706,0,3.09-1.385,3.09-3.095c0-1.705-1.385-3.087-3.09-3.087
		c-1.709,0-3.091,1.382-3.091,3.087C50.315,144.591,51.697,145.976,53.406,145.976z"/>
	<path style="fill:#05293D;" d="M60.724,146.597c1.142,0,2.068-0.926,2.068-2.067c0-1.14-0.926-2.068-2.068-2.068
		c-1.138,0-2.063,0.928-2.063,2.068C58.661,145.672,59.586,146.597,60.724,146.597z"/>
	<circle style="fill:#05293D;" cx="48.329" cy="137.728" r="2.066"/>
	<path style="fill:#05293D;" d="M66.368,146.833c0.812,0,1.472-0.656,1.472-1.467c0-0.814-0.66-1.472-1.472-1.472
		c-0.811,0-1.471,0.657-1.471,1.472C64.897,146.176,65.557,146.833,66.368,146.833z"/>
	<path style="fill:#05293D;" d="M72.008,147.43c1.139,0,2.064-0.926,2.064-2.065c0-1.139-0.925-2.069-2.064-2.069
		c-1.139,0-2.067,0.93-2.067,2.069C69.941,146.505,70.869,147.43,72.008,147.43z"/>
	<path style="fill:#C7B773;" d="M149.866,189.628l0.148,0.069c1.247,0.743,2.543,1.071,3.87,1.071c0.472,0,0.946-0.055,1.423-0.134
		c1.103-0.265,2.196-0.66,3.205-1.08c0.295-0.123,0.577-0.266,0.859-0.407c8.46-4.638,16.397-17.688,16.506-17.871l0.627-1.042
		l0.749,0.96c0.152,0.2,15.506,19.832,25.43,17.935c3.149-0.603,5.482-3.459,6.929-8.484l0.047-0.129
		c0.056-0.119,5.374-11.835,6.128-47.103c-0.517-1.172-1.097-2.291-1.753-3.348l-0.35-0.561l-0.11-0.658
		c-0.032-0.194-0.344-2.132-0.828-6.163c-1.824,33.979-4.962,48.692-5.019,48.93c-1.659,5.766-4.319,8.926-7.899,9.376
		c-8.722,1.135-19.559-14.803-23.191-20.592c-2.977,5.114-11.702,18.902-20.507,21.343c-0.923,0.258-1.822,0.384-2.696,0.384
		c-1.536,0-2.992-0.392-4.356-1.179c-1.002-0.343-4.326-2.023-6.735-9.517c0.013,2.014,0.052,4.134,0.129,6.344
		C145.339,187.733,149.802,189.603,149.866,189.628z"/>
	<path style="fill:#C7B773;" d="M210.99,105.287c-0.481-5.549-0.994-12.178-1.513-20.007c-0.004-0.037-0.01-0.07-0.013-0.104
		c-1.2,2.43-2.579,7.937-2.418,20.41c0.182,1.364,1.388,12.442-6.228,20.761c-5.396,5.894-13.805,8.868-25.021,8.868
		c-1.391,0-2.82-0.045-4.296-0.133c-0.714,0.007-6.419,0.028-12.622-0.964c-6.227-0.995-10.756-2.661-13.546-4.965
		c-0.118,2.08-0.242,4.101-0.374,6.037c4.411,2.417,13.197,3.637,25.809,3.531c12.205-0.099,23.732-1.425,23.876-1.441
		c10.571-0.835,14.617-14.092,16.122-25.852C210.847,109.431,210.921,107.389,210.99,105.287z"/>
	<path style="fill:#C7B773;" d="M193.428,67.261c-1.581,1.03-3.178,1.637-4.716,1.774c-0.036,9.032,0.971,34.761,12.764,50.465
		c0.639-1.3,1.111-2.609,1.461-3.875c-3.848-5.704-6.68-14.422-8.424-25.949c-1.391-9.175-1.53-16.819-1.531-16.895l-0.016-0.788
		l0.789-0.056c2.865-0.206,9.783-3.553,12.732-5.04c-0.285-1.464-0.584-2.941-0.894-4.421
		C202.617,64.293,198.068,66.613,193.428,67.261z"/>
	<path style="fill:#C7B773;" d="M186.427,130.535c-0.544,0.155-1.036,0.331-1.506,0.513c1.487-0.296,2.897-0.666,4.218-1.121
		C188.224,130.1,187.314,130.285,186.427,130.535z"/>
	<path style="fill:#C7B773;" d="M198.796,61.957c-0.441,0.61-0.893,1.182-1.357,1.719c2.993-1.075,5.736-2.63,7.594-3.809
		c-0.561-2.555-1.16-5.114-1.791-7.653C202.631,55.353,201.066,58.825,198.796,61.957z"/>
	<path style="fill:#C7B773;" d="M172.862,237.809c1.302,0.192,3.148,0.319,5.357,0.086
		C176.462,237.978,174.69,237.909,172.862,237.809z"/>
	<path style="fill:#C7B773;" d="M155.657,61.212c1.811-0.459,4.695-0.852,9.273-0.852c6.047,0,13.811,0.691,23.088,2.051
		c0.023,0.005,0.053,0.005,0.082,0.005c0.824,0,2.99-1.189,5.301-4.371c1.844-2.542,3.114-5.442,3.405-7.688
		c-2.349-3.378-11.812-15.811-24.222-16.209c-8.439-0.284-16.889,5.19-25.045,16.238C148.165,53.679,151.8,58.093,155.657,61.212z"
		/>
	<path style="fill:#C7B773;" d="M209.069,132.082c0.217,0,0.416,0.049,0.596,0.128c0.212-3.087,0.412-6.359,0.598-9.856
		c-3.061,10.319-8.333,16.021-15.457,16.583c-0.957,0.114-12.814,1.459-25.248,1.459c-9.404,0-19.135-0.773-24.722-3.434
		c-0.036,0.536-0.079,1.068-0.118,1.589c0.676,0.338,1.143,1.03,1.143,1.841c0,0.924-0.614,1.698-1.452,1.96
		c-0.422,4.772-0.902,8.716-1.443,11.428c-0.047,0.56-0.21,2.5-0.355,5.431c1.594,17.254,7.248,19.359,7.295,19.377l0.17,0.045
		l0.153,0.089c1.587,0.948,3.292,1.148,5.233,0.613c9.59-2.661,19.927-21.802,20.027-21.997l1.051-1.96l1.131,1.918
		c3.662,6.205,14.712,22.09,21.841,21.216c2.501-0.316,4.454-2.871,5.793-7.512c0.033-0.146,2.366-11.113,4.169-36.044
		c-0.131,0.04-0.262,0.063-0.404,0.063c-0.809,0-1.465-0.658-1.465-1.468C207.605,132.742,208.261,132.082,209.069,132.082z
		 M148.952,146.573c-1.705,0-3.091-1.383-3.091-3.091c0-1.709,1.386-3.091,3.091-3.091c1.707,0,3.09,1.382,3.09,3.091
		C152.042,145.19,150.659,146.573,148.952,146.573z M156.272,146.182c-1.14,0-2.064-0.924-2.064-2.067
		c0-1.139,0.925-2.063,2.064-2.063c1.141,0,2.067,0.924,2.067,2.063C158.339,145.257,157.412,146.182,156.272,146.182z
		 M161.917,146.421c-0.813,0-1.473-0.658-1.473-1.471c0-0.809,0.66-1.47,1.473-1.47c0.811,0,1.469,0.661,1.469,1.47
		C163.386,145.763,162.728,146.421,161.917,146.421z M167.556,147.016c-1.14,0-2.068-0.925-2.068-2.065
		c0-1.14,0.929-2.067,2.068-2.067c1.139,0,2.064,0.927,2.064,2.067C169.62,146.091,168.694,147.016,167.556,147.016z
		 M174.897,148.043c-1.707,0-3.092-1.384-3.092-3.094c0-1.708,1.385-3.089,3.092-3.089c1.705,0,3.09,1.381,3.09,3.089
		C177.987,146.659,176.603,148.043,174.897,148.043z M182.497,147.43c-1.139,0-2.064-0.926-2.064-2.065
		c0-1.139,0.926-2.069,2.064-2.069c1.139,0,2.067,0.93,2.067,2.069C184.564,146.505,183.636,147.43,182.497,147.43z
		 M188.138,146.833c-0.811,0-1.472-0.656-1.472-1.467c0-0.814,0.66-1.472,1.472-1.472c0.811,0,1.471,0.657,1.471,1.472
		C189.608,146.176,188.948,146.833,188.138,146.833z M193.781,146.597c-1.142,0-2.068-0.926-2.068-2.067
		c0-1.14,0.927-2.068,2.068-2.068c1.138,0,2.063,0.928,2.063,2.068C195.845,145.672,194.919,146.597,193.781,146.597z
		 M201.1,145.976c-1.706,0-3.091-1.385-3.091-3.095c0-1.705,1.385-3.087,3.091-3.087c1.709,0,3.091,1.382,3.091,3.087
		C204.19,144.591,202.809,145.976,201.1,145.976z M208.242,137.728c0,1.142-0.924,2.067-2.066,2.067
		c-1.143,0-2.068-0.925-2.068-2.067c0-1.139,0.926-2.066,2.068-2.066C207.318,135.662,208.242,136.589,208.242,137.728z"/>
	<path style="fill:#C7B773;" d="M147.217,68.537l3.228,1.483l-0.021,0.562c-0.038,0.838-0.722,16.739-3.805,26.024
		c-0.121,4.403-0.258,8.866-0.416,13.27c6.064-15.052,7.303-34.305,7.553-41.769l-0.629-0.452c-1.693-1.214-3.816-3.015-5.824-5.164
		C147.279,64.36,147.247,66.383,147.217,68.537z"/>
	<path style="fill:#C7B773;" d="M151.455,11.845c-0.004,0.067-0.017,0.136-0.022,0.204c0.153-0.21,0.309-0.415,0.465-0.62
		C151.749,11.568,151.6,11.707,151.455,11.845z"/>
	<path style="fill:#C7B773;" d="M172.798,27.484c9.918,0.317,18.004,6.29,23.311,11.662c-2.741-18.4-12.6-32.472-23.955-32.472
		c-11.383,0-21.263,14.14-23.975,32.612C155.989,31.184,164.241,27.208,172.798,27.484z"/>
	<path style="fill:#C7B773;" d="M190.976,240.636c-5.721,3.194-11.059,4.036-15.094,4.036c-3.541-0.002-6.078-0.65-6.98-0.92
		c-8.546-1.336-14.936-6.062-19.71-12.706c1.581,2.739,3.401,5.249,5.524,7.459c9.768,10.16,21.851,9.196,21.851,9.196
		s9.88,1.409,20.979-7.042c6.643-5.055,10.404-14.156,13.444-23.34C205.661,228.367,198.973,236.173,190.976,240.636z"/>
	<path style="fill:#E3DB9A;" d="M211.136,195.169c0.256,0,0.498,0.054,0.725,0.137c0.617-2.31,1.203-4.698,1.748-7.173l0.08-0.306
		c0.107-0.334,9.403-30.004,3.65-50.086c-1.033,31.442-5.673,42.395-6.143,43.428c-1.637,5.637-4.398,8.867-8.203,9.598
		c-0.55,0.104-1.105,0.155-1.678,0.155c-9.504-0.002-21.524-13.954-24.641-17.775c-2.655,4.163-12.997,19.298-22.801,19.298
		c-1.579,0-3.138-0.392-4.651-1.282c-0.606-0.25-3.739-1.785-6.472-7.69c0.229,3.545,0.566,7.223,1.051,10.906
		c0.006,0.044,0.013,0.083,0.016,0.126c1.133,0.014,2.044,0.932,2.044,2.062c0,0.928-0.61,1.699-1.444,1.961
		c4.785,29.396,16.51,37.316,25.723,38.671l0.313,0.05l0.304,0.104c0.023,0.008,0.786,0.265,2.105,0.459
		c1.828,0.1,3.6,0.168,5.357,0.086c2.726-0.287,6.003-1.122,9.508-3.078c9.758-5.446,17.613-17.643,23.006-35.558
		c-0.947-0.186-1.664-1.021-1.664-2.027C209.069,196.095,209.996,195.169,211.136,195.169z M149.995,204.459
		c-1.707,0-3.09-1.386-3.09-3.092c0-1.708,1.383-3.092,3.09-3.092c1.705,0,3.09,1.383,3.09,3.092
		C153.085,203.073,151.7,204.459,149.995,204.459z M157.638,201.367c-1.143,0-2.069-0.924-2.069-2.066
		c0-1.14,0.927-2.067,2.069-2.067c1.139,0,2.064,0.927,2.064,2.067C159.702,200.443,158.776,201.367,157.638,201.367z
		 M164.017,196.565c-0.808,0-1.466-0.655-1.466-1.468c0-0.808,0.658-1.468,1.466-1.468c0.816,0,1.471,0.659,1.471,1.468
		C165.487,195.91,164.833,196.565,164.017,196.565z M169.62,193.732c-1.139,0-2.064-0.927-2.064-2.067
		c0-1.142,0.926-2.064,2.064-2.064c1.141,0,2.066,0.923,2.066,2.064C171.687,192.805,170.761,193.732,169.62,193.732z
		 M180.181,187.242c0,1.705-1.383,3.09-3.088,3.09c-1.707,0-3.09-1.385-3.09-3.09c0-0.138,0.024-0.268,0.037-0.399
		c-0.013-0.132-0.037-0.261-0.037-0.398c0-1.706,1.383-3.089,3.09-3.089c1.705,0,3.088,1.383,3.088,3.089
		c0,0.137-0.022,0.266-0.037,0.398C180.158,186.974,180.181,187.104,180.181,187.242z M184.565,192.935
		c-1.143,0-2.068-0.924-2.068-2.065c0-1.14,0.926-2.064,2.068-2.064c1.141,0,2.066,0.924,2.066,2.064
		C186.632,192.011,185.706,192.935,184.565,192.935z M190.165,195.771c-0.814,0-1.469-0.654-1.469-1.467
		c0-0.814,0.654-1.468,1.469-1.468c0.814,0,1.47,0.654,1.47,1.468C191.635,195.117,190.979,195.771,190.165,195.771z
		 M196.55,200.574c-1.141,0-2.066-0.929-2.066-2.068c0-1.141,0.926-2.065,2.066-2.065c1.141,0,2.066,0.924,2.066,2.065
		C198.616,199.645,197.69,200.574,196.55,200.574z M204.192,203.664c-1.709,0-3.09-1.386-3.09-3.096c0-1.702,1.381-3.091,3.09-3.091
		c1.706,0,3.09,1.389,3.09,3.091C207.282,202.278,205.898,203.664,204.192,203.664z"/>
	<path style="fill:#E3DB9A;" d="M155.307,190.634c1.349-0.225,2.713-0.746,4.064-1.487c-0.282,0.141-0.564,0.284-0.859,0.407
		C157.503,189.975,156.41,190.369,155.307,190.634z"/>
	<path style="fill:#E3DB9A;" d="M189.139,129.927c3.757-1.296,6.835-3.23,9.202-5.806c0.678-0.737,1.273-1.506,1.8-2.295
		c-8.085-10.21-11.44-24.623-12.821-35.08c-0.994-7.54-1.135-14.129-1.109-17.862c-8.574-1.229-15.738-1.859-21.279-1.859
		c-5.32,0-7.529,0.593-8.109,0.788l-0.57,0.557c-0.115,3.406-0.422,9.046-1.246,15.548c-1.716,13.475-4.758,24.388-9.057,32.47
		c-0.108,2.641-0.227,5.237-0.351,7.761c0.019,0.041,0.038,0.074,0.06,0.113c1.75,4.419,10.406,6.352,17.678,7.092
		c0.214-3.864,3.195-7.054,7.152-7.913v-2.338h-10.839c-0.919,0-1.668-0.748-1.668-1.668c0-0.922,0.749-1.666,1.668-1.666h10.839
		v-6.958h-10.839c-0.919,0-1.668-0.747-1.668-1.668c0-0.918,0.749-1.663,1.668-1.663h10.839v-8.692h-8.172
		c-0.921,0-1.664-0.748-1.664-1.668s0.743-1.666,1.664-1.666h8.172v-7.423c-2.641,0-5.424,0.161-7.845,0.642
		c-0.108,0.024-0.22,0.033-0.327,0.033c-0.779,0-1.473-0.549-1.631-1.338c-0.182-0.904,0.401-1.782,1.303-1.961
		c2.666-0.532,5.674-0.71,8.5-0.713v-7.499c-2.457,0.032-5.156,0.249-7.83,0.806c-0.117,0.022-0.232,0.035-0.342,0.035
		c-0.772,0-1.469-0.537-1.631-1.324c-0.188-0.902,0.391-1.784,1.289-1.972c2.933-0.613,5.857-0.851,8.514-0.884v-3.652
		c0-0.925,0.748-1.67,1.666-1.67c0.92,0,1.665,0.745,1.665,1.67v3.714c4.146,0.19,7.069,0.774,7.289,0.822
		c0.899,0.182,1.478,1.063,1.296,1.963c-0.184,0.898-1.057,1.488-1.967,1.301c-0.05-0.01-2.754-0.551-6.618-0.744v7.509
		c3.935,0.174,6.948,0.59,7.187,0.621c0.91,0.127,1.542,0.972,1.418,1.884c-0.131,0.91-0.977,1.548-1.885,1.417
		c-0.053-0.005-2.945-0.405-6.72-0.576v7.339h9.078c0.919,0,1.668,0.746,1.668,1.666s-0.749,1.668-1.668,1.668h-9.078v8.692h10.985
		c0.918,0,1.665,0.745,1.665,1.663c0,0.922-0.747,1.668-1.665,1.668h-10.985v6.958h10.985c0.918,0,1.665,0.744,1.665,1.666
		c0,0.92-0.747,1.668-1.665,1.668h-10.985v2.187c4.468,0.543,7.933,4.01,8.067,8.25c1.052-0.126,2.056-0.298,3.035-0.493
		c0.47-0.182,0.962-0.358,1.506-0.513C187.314,130.285,188.224,130.1,189.139,129.927z"/>
	<path style="fill:#E3DB9A;" d="M194.667,73.493c0.156,4.384,1.302,27.201,8.788,39.833c0.733-4.107,0.29-7.304,0.28-7.358
		l-0.018-0.229c-0.191-14.271,1.491-22.447,5.135-24.997c-0.559-3.844-1.245-7.936-2.041-12.141
		C203.837,70.089,197.962,72.883,194.667,73.493z"/>
	<path style="fill:#E3DB9A;" d="M147.187,70.357c-0.091,5.537-0.207,11.826-0.365,18.439c1.313-7.378,1.795-15.551,1.908-17.729
		L147.187,70.357z"/>
	<path style="fill:#C7B773;" d="M173.818,124.972v0.736c0,0.92-0.745,1.668-1.665,1.668c-0.918,0-1.666-0.748-1.666-1.668v-0.557
		c-3.078,0.812-5.357,3.336-5.493,6.354c2.591,0.206,4.908,0.266,6.527,0.243l0.061-0.003l0.064,0.007
		c3.073,0.191,5.934,0.179,8.58-0.043C180.189,128.31,177.423,125.496,173.818,124.972z"/>
	<path style="fill:#05293D;" d="M220.058,127.151c-0.42-2.862-2.18-15.754-3.938-42.409l-0.018-0.202
		c-0.023-0.186-2.4-18.614-7.311-37.47c-4.987-19.146-10.645-31.877-17.143-38.516c-8.585-9.191-19.496-8.544-19.496-8.544
		c-7.791,0-14.827,4.268-20.256,11.419c-0.156,0.205-0.311,0.41-0.465,0.62c-6.401,8.779-10.449,21.66-10.641,36.299l-0.012,0.014
		l-0.008,1.058c-0.004,0.845-0.594,84.858-4.371,103.206l-0.052,0.357c-0.063,0.652-0.371,4.058-0.563,9.202
		c-4.986,38.913-0.191,66.195,14.263,81.083c11.185,11.516,24.209,11.274,26.533,11.122c0.998,0.077,1.982,0.116,2.948,0.116
		c8.603,0,16.179-3.014,22.569-8.979c9.939-9.288,16.799-25.453,20.391-48.053c2.416-15.212,2.459-28.027,2.445-30.455
		C226.604,154.075,226.642,138.304,220.058,127.151z M197.546,240.659c-11.1,8.45-20.979,7.042-20.979,7.042
		s-12.083,0.963-21.851-9.196c-2.123-2.21-3.943-4.72-5.524-7.459c4.774,6.645,11.164,11.37,19.71,12.706
		c0.902,0.27,3.439,0.918,6.98,0.92c4.035,0,9.373-0.842,15.094-4.036c7.997-4.463,14.685-12.268,20.015-23.317
		C207.95,226.503,204.189,235.604,197.546,240.659z M209.069,135.019c0.143,0,0.273-0.022,0.404-0.063
		c-1.803,24.931-4.136,35.898-4.169,36.044c-1.339,4.641-3.292,7.196-5.793,7.512c-7.129,0.874-18.179-15.011-21.841-21.216
		l-1.131-1.918l-1.051,1.96c-0.1,0.195-10.438,19.336-20.027,21.997c-1.941,0.534-3.646,0.335-5.233-0.613l-0.153-0.089l-0.17-0.045
		c-0.047-0.018-5.701-2.123-7.295-19.377c0.145-2.932,0.309-4.872,0.355-5.431c0.541-2.711,1.021-6.656,1.443-11.428
		c0.838-0.263,1.452-1.036,1.452-1.96c0-0.811-0.468-1.503-1.143-1.841c0.039-0.521,0.082-1.054,0.118-1.589
		c5.587,2.661,15.317,3.434,24.722,3.434c12.434,0,24.291-1.345,25.248-1.459c7.124-0.563,12.396-6.264,15.457-16.583
		c-0.186,3.497-0.386,6.769-0.598,9.856c-0.18-0.079-0.379-0.128-0.596-0.128c-0.809,0-1.465,0.661-1.465,1.47
		C207.605,134.361,208.261,135.019,209.069,135.019z M146.821,88.796c0.158-6.613,0.274-12.902,0.365-18.439l1.543,0.71
		C148.616,73.245,148.134,81.418,146.821,88.796z M171.647,131.753l-0.064-0.007l-0.061,0.003c-1.619,0.023-3.937-0.037-6.527-0.243
		c0.136-3.019,2.415-5.543,5.493-6.354v0.557c0,0.92,0.748,1.668,1.666,1.668c0.92,0,1.665-0.748,1.665-1.668v-0.736
		c3.605,0.524,6.37,3.338,6.409,6.737C177.581,131.932,174.721,131.943,171.647,131.753z M181.886,131.541
		c-0.135-4.24-3.6-7.707-8.067-8.25v-2.187h10.985c0.918,0,1.665-0.748,1.665-1.668c0-0.922-0.747-1.666-1.665-1.666h-10.985v-6.958
		h10.985c0.918,0,1.665-0.747,1.665-1.668c0-0.918-0.747-1.663-1.665-1.663h-10.985v-8.692h9.078c0.919,0,1.668-0.748,1.668-1.668
		s-0.749-1.666-1.668-1.666h-9.078v-7.339c3.775,0.171,6.667,0.57,6.72,0.576c0.908,0.131,1.754-0.507,1.885-1.417
		c0.124-0.912-0.508-1.757-1.418-1.884c-0.238-0.031-3.252-0.447-7.187-0.621V77.26c3.864,0.193,6.568,0.734,6.618,0.744
		c0.91,0.187,1.783-0.402,1.967-1.301c0.182-0.901-0.396-1.781-1.296-1.963c-0.22-0.048-3.143-0.632-7.289-0.822v-3.714
		c0-0.925-0.745-1.67-1.665-1.67c-0.918,0-1.666,0.745-1.666,1.67v3.652c-2.656,0.033-5.581,0.271-8.514,0.884
		c-0.898,0.188-1.477,1.07-1.289,1.972c0.162,0.787,0.858,1.324,1.631,1.324c0.109,0,0.225-0.012,0.342-0.035
		c2.674-0.557,5.373-0.774,7.83-0.806v7.499c-2.826,0.003-5.834,0.181-8.5,0.713c-0.901,0.179-1.484,1.058-1.303,1.961
		c0.158,0.789,0.851,1.338,1.631,1.338c0.107,0,0.219-0.009,0.327-0.033c2.421-0.481,5.204-0.642,7.845-0.642v7.423h-8.172
		c-0.921,0-1.664,0.746-1.664,1.666s0.743,1.668,1.664,1.668h8.172v8.692h-10.839c-0.919,0-1.668,0.745-1.668,1.663
		c0,0.922,0.749,1.668,1.668,1.668h10.839v6.958h-10.839c-0.919,0-1.668,0.744-1.668,1.666c0,0.92,0.749,1.668,1.668,1.668h10.839
		v2.338c-3.957,0.859-6.939,4.049-7.152,7.913c-7.271-0.741-15.928-2.673-17.678-7.092c-0.021-0.039-0.041-0.072-0.06-0.113
		c0.124-2.524,0.242-5.121,0.351-7.761c4.299-8.082,7.341-18.995,9.057-32.47c0.824-6.502,1.131-12.142,1.246-15.548l0.57-0.557
		c0.58-0.194,2.789-0.788,8.109-0.788c5.541,0,12.705,0.629,21.279,1.859c-0.025,3.733,0.115,10.322,1.109,17.862
		c1.381,10.457,4.736,24.87,12.821,35.08c-0.526,0.789-1.122,1.558-1.8,2.295c-2.367,2.576-5.445,4.51-9.202,5.806
		c-1.32,0.455-2.73,0.824-4.218,1.121C183.941,131.243,182.938,131.415,181.886,131.541z M194.645,137.28
		c-0.144,0.016-11.671,1.342-23.876,1.441c-12.611,0.106-21.397-1.114-25.809-3.531c0.132-1.937,0.256-3.957,0.374-6.037
		c2.79,2.304,7.319,3.971,13.546,4.965c6.203,0.992,11.908,0.971,12.622,0.964c1.476,0.088,2.905,0.133,4.296,0.133
		c11.217,0,19.625-2.974,25.021-8.868c7.615-8.318,6.409-19.396,6.228-20.761c-0.161-12.473,1.218-17.98,2.418-20.41
		c0.003,0.033,0.009,0.067,0.013,0.104c0.519,7.829,1.031,14.458,1.513,20.007c-0.069,2.102-0.144,4.144-0.224,6.142
		C209.262,123.188,205.216,136.445,194.645,137.28z M203.718,105.738l0.018,0.229c0.01,0.054,0.453,3.251-0.28,7.358
		c-7.486-12.632-8.632-35.449-8.788-39.833c3.295-0.61,9.17-3.403,12.145-4.893c0.796,4.205,1.482,8.296,2.041,12.141
		C205.209,83.291,203.526,91.467,203.718,105.738z M193.755,71.938l-0.789,0.056l0.016,0.788c0.001,0.076,0.141,7.72,1.531,16.895
		c1.744,11.527,4.576,20.245,8.424,25.949c-0.35,1.266-0.822,2.576-1.461,3.875c-11.793-15.704-12.8-41.434-12.764-50.465
		c1.538-0.137,3.135-0.744,4.716-1.774c4.641-0.648,9.189-2.969,12.166-4.785c0.31,1.48,0.608,2.957,0.894,4.421
		C203.538,68.385,196.62,71.732,193.755,71.938z M197.439,63.675c0.465-0.537,0.916-1.108,1.357-1.719
		c2.27-3.131,3.835-6.604,4.445-9.743c0.631,2.54,1.23,5.099,1.791,7.653C203.175,61.045,200.432,62.6,197.439,63.675z
		 M172.585,34.147c12.41,0.398,21.873,12.831,24.222,16.209c-0.291,2.246-1.562,5.146-3.405,7.688
		c-2.311,3.183-4.477,4.371-5.301,4.371c-0.029,0-0.059,0-0.082-0.005c-9.277-1.359-17.041-2.051-23.088-2.051
		c-4.578,0-7.463,0.393-9.273,0.852c-3.857-3.119-7.492-7.533-8.117-10.827C155.696,39.337,164.146,33.862,172.585,34.147z
		 M148.179,39.286c2.712-18.472,12.592-32.612,23.975-32.612c11.355,0,21.214,14.072,23.955,32.472
		c-5.307-5.372-13.393-11.344-23.311-11.662C164.241,27.208,155.989,31.184,148.179,39.286z M153.126,67.655l0.629,0.452
		c-0.25,7.464-1.489,26.716-7.553,41.769c0.158-4.404,0.295-8.867,0.416-13.27c3.083-9.285,3.767-25.186,3.805-26.024l0.021-0.562
		l-3.228-1.483c0.03-2.154,0.063-4.177,0.085-6.046C149.311,64.64,151.433,66.441,153.126,67.655z M149.077,180.946
		c1.363,0.788,2.819,1.179,4.356,1.179c0.874,0,1.773-0.126,2.696-0.384c8.805-2.441,17.53-16.229,20.507-21.343
		c3.633,5.789,14.47,21.728,23.191,20.592c3.579-0.451,6.239-3.61,7.899-9.376c0.058-0.238,3.195-14.952,5.019-48.93
		c0.484,4.031,0.796,5.968,0.828,6.163l0.11,0.658l0.35,0.561c0.656,1.057,1.236,2.176,1.753,3.348
		c-0.754,35.268-6.072,46.984-6.128,47.103l-0.047,0.129c-1.446,5.025-3.779,7.881-6.929,8.484
		c-9.924,1.898-25.277-17.735-25.43-17.935l-0.749-0.96l-0.627,1.042c-0.108,0.183-8.046,13.233-16.506,17.871
		c-1.352,0.741-2.716,1.262-4.064,1.487c-0.477,0.079-0.951,0.134-1.423,0.134c-1.327,0-2.623-0.329-3.87-1.071l-0.148-0.069
		c-0.064-0.024-4.527-1.894-7.395-11.854c-0.077-2.21-0.116-4.33-0.129-6.344C144.751,178.922,148.075,180.603,149.077,180.946z
		 M210.733,199.26c-5.393,17.915-13.248,30.111-23.006,35.558c-3.505,1.955-6.782,2.791-9.508,3.078
		c-2.209,0.232-4.056,0.105-5.357-0.086c-1.319-0.194-2.082-0.451-2.105-0.459l-0.304-0.104l-0.313-0.05
		c-9.213-1.355-20.938-9.274-25.723-38.671c0.834-0.262,1.444-1.033,1.444-1.961c0-1.13-0.911-2.048-2.044-2.062
		c-0.003-0.043-0.01-0.082-0.016-0.126c-0.484-3.684-0.822-7.361-1.051-10.906c2.732,5.906,5.865,7.44,6.472,7.69
		c1.514,0.891,3.072,1.282,4.651,1.282c9.804,0,20.146-15.135,22.801-19.298c3.116,3.821,15.137,17.773,24.641,17.775
		c0.572,0,1.128-0.051,1.678-0.155c3.805-0.731,6.567-3.961,8.203-9.598c0.47-1.033,5.109-11.986,6.143-43.428
		c5.753,20.082-3.543,49.752-3.65,50.086l-0.08,0.306c-0.545,2.475-1.131,4.863-1.748,7.173c-0.226-0.083-0.469-0.137-0.725-0.137
		c-1.14,0-2.066,0.926-2.066,2.064C209.069,198.239,209.786,199.074,210.733,199.26z"/>
	<path style="fill:#05293D;" d="M204.192,197.477c-1.709,0-3.09,1.389-3.09,3.091c0,1.71,1.381,3.096,3.09,3.096
		c1.706,0,3.09-1.386,3.09-3.096C207.282,198.866,205.898,197.477,204.192,197.477z"/>
	<circle style="fill:#05293D;" cx="196.55" cy="198.507" r="2.067"/>
	<path style="fill:#05293D;" d="M190.165,192.837c-0.814,0-1.469,0.654-1.469,1.468c0,0.813,0.654,1.467,1.469,1.467
		c0.814,0,1.47-0.654,1.47-1.467C191.635,193.491,190.979,192.837,190.165,192.837z"/>
	<circle style="fill:#05293D;" cx="184.565" cy="190.871" r="2.064"/>
	<path style="fill:#05293D;" d="M177.093,183.355c-1.707,0-3.09,1.383-3.09,3.089c0,0.137,0.024,0.266,0.037,0.398
		c-0.013,0.131-0.037,0.261-0.037,0.399c0,1.705,1.383,3.09,3.09,3.09c1.705,0,3.088-1.385,3.088-3.09
		c0-0.138-0.022-0.268-0.037-0.399c0.015-0.132,0.037-0.261,0.037-0.398C180.181,184.738,178.798,183.355,177.093,183.355z"/>
	<circle style="fill:#05293D;" cx="149.995" cy="201.367" r="3.092"/>
	<path style="fill:#05293D;" d="M157.638,197.234c-1.143,0-2.069,0.927-2.069,2.067c0,1.142,0.927,2.066,2.069,2.066
		c1.139,0,2.064-0.924,2.064-2.066C159.702,198.161,158.776,197.234,157.638,197.234z"/>
	<path style="fill:#05293D;" d="M164.017,193.63c-0.808,0-1.466,0.659-1.466,1.468c0,0.813,0.658,1.468,1.466,1.468
		c0.816,0,1.471-0.655,1.471-1.468C165.487,194.289,164.833,193.63,164.017,193.63z"/>
	<circle style="fill:#05293D;" cx="169.62" cy="191.666" r="2.066"/>
	<circle style="fill:#05293D;" cx="174.897" cy="144.952" r="3.092"/>
	<circle style="fill:#05293D;" cx="148.952" cy="143.482" r="3.091"/>
	<circle style="fill:#05293D;" cx="156.272" cy="144.117" r="2.065"/>
	<path style="fill:#05293D;" d="M161.917,143.48c-0.813,0-1.473,0.661-1.473,1.47c0,0.813,0.66,1.471,1.473,1.471
		c0.811,0,1.469-0.658,1.469-1.471C163.386,144.141,162.728,143.48,161.917,143.48z"/>
	<path style="fill:#05293D;" d="M167.556,142.883c-1.14,0-2.068,0.927-2.068,2.067c0,1.14,0.929,2.065,2.068,2.065
		c1.139,0,2.064-0.925,2.064-2.065C169.62,143.811,168.694,142.883,167.556,142.883z"/>
	<path style="fill:#05293D;" d="M201.1,139.795c-1.706,0-3.091,1.382-3.091,3.087c0,1.71,1.385,3.095,3.091,3.095
		c1.709,0,3.091-1.385,3.091-3.095C204.19,141.177,202.809,139.795,201.1,139.795z"/>
	<path style="fill:#05293D;" d="M193.781,142.462c-1.142,0-2.068,0.928-2.068,2.068c0,1.142,0.927,2.067,2.068,2.067
		c1.138,0,2.063-0.926,2.063-2.067C195.845,143.39,194.919,142.462,193.781,142.462z"/>
	<circle style="fill:#05293D;" cx="206.175" cy="137.728" r="2.067"/>
	<path style="fill:#05293D;" d="M188.138,143.894c-0.811,0-1.472,0.657-1.472,1.472c0,0.811,0.66,1.467,1.472,1.467
		c0.811,0,1.471-0.656,1.471-1.467C189.608,144.551,188.948,143.894,188.138,143.894z"/>
	<circle style="fill:#05293D;" cx="182.497" cy="145.364" r="2.067"/>
</g>
<g>
</g>
<g>
</g>
<g>
</g>
<g>
</g>
<g>
</g>
<g>
</g>
<g>
</g>
<g>
</g>
<g>
</g>
<g>
</g>
<g>
</g>
<g>
</g>
<g>
</g>
<g>
</g>
<g>
</g>
</svg>
